/* XPM */
static char *result[] = {
/* columns rows colors chars-per-pixel */
"50 50 227 2 ",
"   c #080000",
".  c #1A0A09",
"X  c #1E0D14",
"o  c #1E0D1A",
"O  c #2A0A07",
"+  c #3C0603",
"@  c #340A02",
"#  c #3B0904",
"$  c #390E0B",
"%  c #261203",
"&  c #291505",
"*  c #2A1709",
"=  c #2C190B",
"-  c #281708",
";  c #341500",
":  c #3C1B02",
">  c #32130E",
",  c #3A1706",
"<  c #2D0B11",
"1  c #2F0F18",
"2  c #3A0711",
"3  c #330C13",
"4  c #3B0A11",
"5  c #340B17",
"6  c #24121B",
"7  c #2B131B",
"8  c #2D191B",
"9  c #2A1515",
"0  c #321412",
"q  c #391313",
"w  c #341914",
"e  c #3B1E14",
"r  c #32121D",
"t  c #331B1C",
"y  c #39141E",
"u  c #37230D",
"i  c #392315",
"p  c #3D231B",
"a  c #3B2816",
"s  c #2D1D2A",
"d  c #2A1823",
"f  c #331A23",
"g  c #301E29",
"h  c #3D1D20",
"j  c #34232D",
"k  c #3A252A",
"l  c #3D292C",
"z  c #3B2523",
"x  c #362533",
"c  c #3A2733",
"v  c #3C2A35",
"b  c #3D2C3A",
"n  c #4D0B0A",
"m  c #430906",
"M  c #54090C",
"N  c #5B0C0F",
"B  c #431D01",
"V  c #48180C",
"C  c #430B13",
"Z  c #5D0D14",
"A  c #451813",
"S  c #581712",
"D  c #5A160F",
"F  c #660D13",
"G  c #651215",
"H  c #6C1316",
"J  c #681919",
"K  c #731319",
"L  c #7A171B",
"P  c #462003",
"I  c #4B2101",
"U  c #46230D",
"Y  c #542501",
"T  c #5A2701",
"R  c #5D2A01",
"E  c #54280A",
"W  c #432A16",
"Q  c #4C2914",
"!  c #43251C",
"~  c #442C1C",
"^  c #482E1E",
"/  c #4A2416",
"(  c #572718",
")  c #4B331D",
"_  c #4F381D",
"`  c #55331B",
"'  c #52391F",
"]  c #5B3319",
"[  c #622B02",
"{  c #672F07",
"}  c #6B3208",
"|  c #743507",
" . c #7E3B08",
".. c #6B241C",
"X. c #6B2D1C",
"o. c #63281B",
"O. c #722C1E",
"+. c #6A3719",
"@. c #442B22",
"#. c #4B2D24",
"$. c #442D2D",
"%. c #482927",
"&. c #542829",
"*. c #4C3322",
"=. c #4C342B",
"-. c #47312A",
";. c #523423",
":. c #5B3325",
">. c #543A23",
",. c #593D25",
"<. c #54392A",
"1. c #5B3E2B",
"2. c #583629",
"3. c #432E33",
"4. c #412D3B",
"5. c #4A3332",
"6. c #44313D",
"7. c #4C343C",
"8. c #4B3637",
"9. c #5B3E31",
"0. c #553739",
"q. c #683924",
"w. c #743321",
"e. c #753C23",
"r. c #783C26",
"t. c #692923",
"y. c #5C4126",
"u. c #5D422A",
"i. c #5E4231",
"p. c #594831",
"a. c #62442C",
"s. c #65492D",
"d. c #694C2D",
"f. c #6F452D",
"g. c #794629",
"h. c #73542F",
"j. c #644432",
"k. c #664A31",
"l. c #6C4C34",
"z. c #60443A",
"x. c #744633",
"c. c #755632",
"v. c #7C5C33",
"b. c #755539",
"n. c #7B5B3B",
"m. c #7D5135",
"M. c #6F5032",
"N. c #463243",
"B. c #4A3544",
"V. c #4D3846",
"C. c #4D394A",
"Z. c #533D4C",
"A. c #563B45",
"S. c #543F50",
"D. c #5A424C",
"F. c #58414C",
"G. c #554052",
"H. c #5B4454",
"J. c #5E495B",
"K. c #5C4759",
"L. c #624B5C",
"P. c #64495A",
"I. c #6D514F",
"U. c #664E60",
"Y. c #6A4F63",
"T. c #675062",
"R. c #6A5263",
"E. c #6F5669",
"W. c #745B6C",
"Q. c #795E6F",
"!. c #725666",
"~. c #795F71",
"^. c #755C70",
"/. c #7D6173",
"(. c #796069",
"). c #8A181C",
"_. c #971D1D",
"`. c #8D2E14",
"'. c #B72C1E",
"]. c #8F3028",
"[. c #BB3422",
"{. c #AE292B",
"}. c #C13B21",
"|. c #CA3D20",
" X c #85482C",
".X c #875636",
"XX c #955B36",
"oX c #8F512B",
"OX c #856334",
"+X c #82623B",
"@X c #8B693B",
"#X c #9C643B",
"$X c #A4693C",
"%X c #AD703E",
"&X c #B16029",
"*X c #CC561F",
"=X c #D2551F",
"-X c #D3671F",
";X c #C94422",
":X c #CD5720",
">X c #D45921",
",X c #8D6A44",
"<X c #866541",
"1X c #936E45",
"2X c #936A45",
"3X c #957445",
"4X c #97764C",
"5X c #9A7A52",
"6X c #8D734D",
"7X c #A57748",
"8X c #B77842",
"9X c #816678",
"0X c #856A7B",
"qX c #856B7B",
"wX c #C07D43",
"eX c #A9894D",
"rX c #AA8657",
"tX c #B28E58",
"yX c #B79556",
"uX c #C78549",
"iX c #C9AA5C",
"pX c #D0B264",
"aX c #896E81",
"sX c #876D81",
"dX c #8C7183",
"fX c #94798C",
"gX c None",
/* pixels */
"gXgXgXgXgXgXgXgXgXgXgXgXgXgXgXgXgXgXgXgXgXgXgXgXgXgXgXgXgXgXgXgXgXgXgXgXgXgXgXgXgXgXgXgXgXgXgXgXgXgX",
"gXgXgXgXgXgXgXgXgXgXgXgXgXgXgXgXgXgXgXgXgXgXgXgXgXgXgXgXgXgXgXgX].{.].gXgXgXgXgXgXgXgXgXgXgXgXgXgXgX",
"gXgXgXgXgXgXgXgXgXgXgXgXgXgXgXgXgXgXgXgXgXgXgXgXgXgXgXgXgXgXr.oXH J ....L gXgXgXgXgXgXgXgXgXgXgXgXgX",
"gXgXgXgXgXgXgXgXgXgXgXgXgXgXgXgXgXgXgXgXgXgXgXgXgXgXgXgXgXO.wXXXn G J H J gXgXgXgXgXgXgXgXgXgXgXgXgX",
"gXgXgXgXgXgXgXgXgXgXgXgXgXgXgXgXgXgXgXgXgXgXgXgXgXgXgXgXgX%XuX%XV G K G K gXgXgXgXgXgXgXgXgXgXgXgXgX",
"gXgXgXgXgXgXgXgXgXgXgXgXgXgXgXgXgXgXgXgXgXgXgXgXgXgXgXgX8XuXuX%XwX+.N F H gXgXgXgXgXgXgXgXgXgXgXgXgX",
"gXgXgXgXgXgXgXgXgXgXgXgXgXgXgXgXgXgXgXgXgXgXgXgXgXgXgXgX#X#Xe   :.8XX.N K gXgXgXgXgXgXgXgXgXgXgXgXgX",
"gXgXgXgXgXgXgXgXgXgXgXgXgXgXgXgXgXgXgXgXgXgXgXgXgXgXgXgX Xk   =.8.. XXD G K gXgXgXgXgXgXgXgXgXgXgXgX",
"gXgXgXgXgXgXgXgXgXgXgXgXgXgXgXgXgXgXgXgXgXgXgXgXgXgXgX X XO . 6 p q.7Xw.K ).gXgXgXgXgXgXgXgXgXgXgXgX",
"gXgXgXgXgXgXgXgXgXgXgXgXgXgXgXgXgXgXgXgXgXgXgXgXgXgXH w.XX; .   ` uXXX( F F G gXgXgXgXgXgXgXgXgXgXgX",
"gXgXgXgXgXgXgXgXgXgXgXgXgXgXgXgXgXgXgXgXgXgXgXgXXXr.M w.g.; P % g.g.# n M o.oXgXgXgXgXgXgXgXgXgXgXgX",
"gXgXgXgXgXgXgXgXgXgXgXgXgXgXgXgXgXgXgXgXgXgXgXZ .. Xe.g.q.B I : #X( m S q.w.w...gXgXgXgXgXgXgXgXgXgX",
"gXgXgXgXgXgXgXgXgXgXgXgXgXgXgXgXgXgXgXgXf..X.Xw.S S ]  X` ; : U #XV + t.w.D n M gXgXgXgXgXgXgXgXgXgX",
"gXgXgXgXgXgXgXgXgXgXgXgXgXgXgXgXgXgXgXd t } ] a.:.n m  XU % % Q XXm A q.m.XX X( M gXgXgXgXgXgXgXgXgX",
"gXgXgXgXgXgXgXgXgXgXgXgXgXgXgXgXgXgXgX6 7 [ [ I &.A n  Xe ; % ! q.A ;.E { f.oX.Xr.gXgXgXgXgXgXgXgXgX",
"gXgXgXgXgXgXgXgXgXgXgXgXgXgXgXgXgXgXE 6 t T I I Q #.S g.= , : 6 o ! I Y [ { } q.w. XgXgXgXgXgXgXgXgX",
"gXgXgXgXgXgXgXgXgXgXgXgXgXgXgXgXgXY T E U R I ; U =...e.O a 0 o 6 {  .| R P [ } ` m gXgXgXgXgXgXgXgX",
"gXgXgXgXgXgXgXgXgXgXgXgXgXgXgXgXB I R T Y I B ; Q gXm.,X# $ $ 8 P [  . .| E I T ] A gXgXgXgXgXgXgXgX",
"gXgXgXgXgXgXgXgXgXgXgXgXgXgXgXgXB : B P : ; ; : gXgX5X,XX.M V R T Y | | | T B Y ] gXgXgXgXgXgXgXgXgX",
"gXgXgXgXgXgXgXgXgXgXgXgXgXgXgXgXP Y B : % %.gXgXgXtXyX5Xg.N U [ Y I Y Y B B B Y ` gXgXgXgXgXgXgXgXgX",
"gXgXgXgXgXgXgXgXgXgXgXgXgXgXgXgXgXB B , -.~.W.3.6XtXtX4Xn.S 0 B : B P I Y I B ( :.gXgXgXgXgXgXgXgXgX",
"gXgXgXgXgXgXgXgXgXgXgXgXgXgXgXgXgXR.0.e A.E.x b.rX5X7X4X<Xe.q P I P : B B B o.A.gXgXgXgXgXgXgXgXgXgX",
"gXgXgXgXgXgXgXgXgXgXgXgXgXgXgXgXgXaXqX%.A.P.<.b.=.=.I.@Xn.l.w P Y : ; @ @ # ( A.gXW.!.~.0XgXgXgXgXgX",
"gXgXgXgXgXgXgXgXgXgXgXgXgXgXgXgXdX9XdX0.&.z.u.8 7 7 <.l.b.;.q m @ @ # @ @ @ e 8.R.R.!./.9XQ.~./.gXgX",
"gXgXgXgXgXgXgXgXgXgXgXgXgXgXgXgXW.~./.A.w -.8 g 4.j f u.j.@./ &./ A A $ @ > u 0.Q.L.W.9X9XW.aX9XE.gX",
"gXgXgXgXgXgXgXgXgXgXgXgXgXgXgXW.P.U.R.I.s.<.v T.T.B.6 @.;.e l.;.a.j.j.1.1.1.^ H.Y.Q.0X9XQ./.9XN.L.gX",
"gXgXgXgXgXgX*.gXgXgXgXgXgXgXgXZ.N.4.3.) I.(.J.U.T.N.c =.w =.l.@.w t @.p z p t U.L.W.qX0XQ.fXH.6 H.gX",
"gXgXgXgXgX>.' <.8.G.J.J.G.b c 3.3.N.D.Q.E.Q.~.Z.b c ) *.z q.a.9.6 7 6 6 7 . c !.R.~.0X0X0XdX8 d H.gX",
"gXgXgXgXgX^ y.=.N.5.C.N.x 8.6XyXh.7.R./.T.G.H.L.N.k u W 9.1.1.j.%.r r r 7 5 A.P.T.~./.W.qX!.. 6 Z.gX",
"gXgXgXgX) >.' @.c =.=.x 5.eXiXiX3X^ b 6.V.G.C.S.B.j 5.3.$.-.=.2.2.y y r 5 5 Z.P.P.U.U.L.9XG.Z.Z.6.gX",
"gXgXgXu.) a.>.' ) j j =.W eXpXyXh.^ v Z.6.b N.N.B.F.E.U.Z.V.4.2.1.%.5 r 1 r S.Z.Z.Z.P.H.W.B.L.G.b gX",
"gXgXgXu.,.s.y.p.-.7 z v.~ eXyX,.u @.z D.V.v 5.N.A.' i.U.S.N.k 1.<.u.h r 5 f D.V.S.Z.Z.H.T.j N.x gXgX",
"gXgXgX>.y.s.<.g X w v.@X' v._ a d.@X) k 4.$.=.=.y.;.u z b s 6 a a.b.j.1 > $.L.D.Z.Z.D.L.L.s c j gXgX",
"gXgXgX*.>.1.f 6 6 d.OXy.! q ! n.@XOXd.@.) ) ' ' ~ = % d x s o 9 <.M.l.^ e k N.7.B.Z.D.Y.V.d j c gXgX",
"gXgXgXk.a.gXgXgXk.OX>.< 2 2 2 ] @XOXh.u.y.>.) i - - = x s . . 9 #.a.j.#.q 7.S.H.H.V.4.Z.4.6 s 6.gXgX",
"gXgXgXgXgXgXB.l .Xl.< 4 4 G ).L M.OXu.u.,.a = - - - 8 s 6 s x j @.,.;.#.gXP.S.H.P.J.K.~.8.o b gXgXgX",
"gXgXgXgXgX<.%.$.@Xi 3 4 Z {.}.|.].s.y._ u & * - & - d s c c l 5.1.q.gXgXgXgXH.D.J.J.G.J.c 6 C.gXgXgX",
"gXgXgXgX,.1.g 9.n.> 2 4 L }.*X=XoXy.) - % * - - - = x 6.v b 4.l 3.gXgXgXgXgXK.K.L.K.G.J.4.j K.gXgXgX",
"gXgX>.u.j.5.d z.c.0 4 4 _.}.=X&Xu.a - - = - = 0 = j b v C.H.G.V.gXgXgXgXgXgXW.U.R.T.K.J.H.H.gXgXgXgX",
"gX*.y.s.5.k d <.a.< m C _.|.=XoX` o.q.n.n.j.2.&.x >.b G.T.E.K.gXgXgXgXgXgXgXgX~././.R.L.T.W.gXgXgXgX",
"gX<.y.9.k p f f d.w 2 2 ).}.*X-X>X[.].5X,X1Xx.#.z b B.G.A.U.C.gXgXgXgXgXgXgXgXgXgXgXgXgXgXgXgXgXgXgX",
"gXu.u.#.i W p t ) e 2 4 H [.*X*X>X[.q.6X,X3Xx.u.) -.l z =.7.gXgXgXgXgXgXgXgXgXgXgXgXgXgXgXgXgXgXgXgX",
"gXgX<.i i ~ W p ~ ^ < 2 C _.[.}.;X_.S 4X,X1Xn.,.) ' y.s.u.*.gXgXgXgXgXgXgXgXgXgXgXgXgXgXgXgXgXgXgXgX",
"gXgXz gXgXgXgXgXgX>.q 2 4 C K )._.Z &.5X,X<Xu.<.y.' _ >._ ~ gXgXgXgXgXgXgXgXgXgXgXgXgXgXgXgXgXgXgXgX",
"gXgXgXgXgXgXgXgXgXgX^ < C C 4 C C O b.1X+Xp.u.s.s.y.y.) ) <.gXgXgXgXgXgXgXgXgXgXgXgXgXgXgXgXgXgXgXgX",
"gXgXgXgXgXgXgXgXgXgXgX^ < 4 C 4 3 ;.1X+Xa.y.d.s.,.;.a ~ 1.gXgXgXgXgXgXgXgXgXgXgXgXgXgXgXgXgXgXgXgXgX",
"gXgXgXgXgXgXgXgXgXgXgXgXy.w < q ,.OXOXl.) >._ >.>.>.>.gXgXgXgXgXgXgXgXgXgXgXgXgXgXgXgXgXgXgXgXgXgXgX",
"gXgXgXgXgXgXgXgXgXgXgXgXgXh.u.d.@Xv.k.u.>.) ~ ) _ gXgXgXgXgXgXgXgXgXgXgXgXgXgXgXgXgXgXgXgXgXgXgXgXgX",
"gXgXgXgXgXgXgXgXgXgXgXgXgXgXeXv.k.u.a gXgXgXgXgXgXgXgXgXgXgXgXgXgXgXgXgXgXgXgXgXgXgXgXgXgXgXgXgXgXgX",
"gXgXgXgXgXgXgXgXgXgXgXgXgXgXgXgXgXgXgXgXgXgXgXgXgXgXgXgXgXgXgXgXgXgXgXgXgXgXgXgXgXgXgXgXgXgXgXgXgXgX"
};
