/* XPM */
static char *result[] = {
/* columns rows colors chars-per-pixel */
"50 50 199 2 ",
"   c #251607",
".  c #2C1B0B",
"X  c #291707",
"o  c #311D0C",
"O  c #331B05",
"+  c #35210E",
"@  c #3B240E",
"#  c #3F280D",
"$  c #3E2105",
"%  c #352410",
"&  c #3B2610",
"*  c #3D2A12",
"=  c #302518",
"-  c #27352C",
";  c #28352E",
":  c #38382A",
">  c #2C3C34",
",  c #2C3F39",
"<  c #303C35",
"1  c #412207",
"2  c #42260E",
"3  c #452A0D",
"4  c #4B2C0D",
"5  c #4D300D",
"6  c #52340F",
"7  c #412711",
"8  c #432C13",
"9  c #4C2B15",
"0  c #453115",
"q  c #4B3415",
"w  c #44341A",
"e  c #4B3619",
"r  c #46391C",
"t  c #4E391A",
"y  c #4E3914",
"u  c #513412",
"i  c #523916",
"p  c #533C1B",
"a  c #593F1B",
"s  c #443D2B",
"d  c #473924",
"f  c #493E34",
"g  c #2E413B",
"h  c #31433D",
"j  c #56411C",
"k  c #5A431D",
"l  c #5B4516",
"z  c #63461D",
"x  c #62491F",
"c  c #6B4F1E",
"v  c #4D4123",
"b  c #47422D",
"n  c #524323",
"m  c #5B4521",
"M  c #574923",
"N  c #5E4A22",
"B  c #53492D",
"V  c #454234",
"C  c #494333",
"Z  c #4D4B34",
"A  c #46483A",
"S  c #4C4C39",
"D  c #534F39",
"F  c #534C34",
"G  c #52513E",
"H  c #59573B",
"J  c #644C22",
"K  c #6B4E21",
"L  c #665125",
"P  c #6C5323",
"I  c #6A552B",
"U  c #625029",
"Y  c #715524",
"T  c #745A26",
"R  c #745B2A",
"E  c #795D28",
"W  c #665838",
"Q  c #795F31",
"!  c #7B632C",
"~  c #7C6125",
"^  c #7A6433",
"/  c #2E4541",
"(  c #324542",
")  c #344A45",
"_  c #354C4B",
"`  c #394D4C",
"'  c #34464A",
"]  c #3C514E",
"[  c #37504C",
"{  c #3C4F52",
"}  c #374D50",
"|  c #3D5354",
" . c #3F555A",
".. c #4A4F41",
"X. c #434B43",
"o. c #4A5345",
"O. c #47534C",
"+. c #575343",
"@. c #5C5C44",
"#. c #5A5B4B",
"$. c #565749",
"%. c #415656",
"&. c #425856",
"*. c #4C5B54",
"=. c #405659",
"-. c #445B5C",
";. c #485C5D",
":. c #525E55",
">. c #645A43",
",. c #715E49",
"<. c #44615F",
"1. c #4D625C",
"2. c #5A675D",
"3. c #54665C",
"4. c #666448",
"5. c #636857",
"6. c #75694E",
"7. c #445E62",
"8. c #495E61",
"9. c #4C6364",
"0. c #4E6866",
"q. c #456368",
"w. c #4E6769",
"e. c #4E696A",
"r. c #476063",
"t. c #516565",
"y. c #546A65",
"u. c #51676A",
"i. c #526B6B",
"p. c #596D6C",
"a. c #56716D",
"s. c #59726D",
"d. c #4D6E71",
"f. c #576F71",
"g. c #577572",
"h. c #5C7574",
"j. c #5E7A75",
"k. c #5D7678",
"l. c #5E7C7A",
"z. c #606B63",
"x. c #62746D",
"c. c #697468",
"v. c #757D6E",
"b. c #637B74",
"n. c #627D7A",
"m. c #6B7D74",
"M. c #82642C",
"N. c #856A2C",
"B. c #8A6E39",
"V. c #806630",
"C. c #8F7439",
"Z. c #8D7130",
"A. c #907335",
"S. c #7F836E",
"D. c #64817D",
"F. c #6A847D",
"G. c #7D8A7C",
"H. c #71837E",
"J. c #9A8245",
"K. c #B3964C",
"L. c #B7994B",
"P. c #B49952",
"I. c #BDA053",
"U. c #868F75",
"Y. c #C6A857",
"T. c #657F80",
"R. c #668281",
"E. c #6A8583",
"W. c #6E8A85",
"Q. c #6B8788",
"!. c #6E8989",
"~. c #728B86",
"^. c #7C8F84",
"/. c #728D8B",
"(. c #75918C",
"). c #7A948D",
"_. c #7D988F",
"`. c #779492",
"'. c #7A9692",
"]. c #7D9995",
"[. c #7F9C9A",
"{. c #819B94",
"}. c #829E99",
"|. c #86988D",
" X c #86A19A",
".X c #8AA49C",
"XX c #91A194",
"oX c #8BA6A1",
"OX c #8DA9A4",
"+X c #84A2A0",
"@X c #92ABA3",
"#X c #92AFA9",
"$X c #95B1AA",
"%X c #99B2AB",
"&X c #9DB8B0",
"*X c #A5BFB9",
"=X c #A3BCB5",
"-X c #B0C8C0",
";X c None",
/* pixels */
";X;X;X;X;X;X;X;X;X;X;X;X;X;X;X;X;X;X;X;X;X;X;X;X;X;X;X;X;X;X;X;X;X;X;X;X;X;X;X;X;X;X;X;X;X;X;X;X;X;X",
";X;X;X;X;X;X;X;X;X;X;X;X;X% e t L ;X;X;X;X;X;X;X;X;X;X;X;X;X;X;X;X;X;X;X;X;X;X;X;X;X;X;X;X;X;X;X;X;X",
";X;X;X;X;X;X;X;X;X;X;X0 p t & * R R ;X;X;X;X;X;X;X;X;X;X;X;X;X;X;X;X;X;X;X;X;X;X;X;X;X;X;X;X;X;X;X;X",
";X;X;X;X;X;X;X;X;X;X* 9 8 p a m ! Q ;X;X;X;X;X;X;X;X;X;X;X;X;X;X;X;X;X;X;X;X;X;X;X;X;X;X;X;X;X;X;X;X",
";X;X;X;X;X;X;X;X;Xk q o   0 k M I ^ Y ;X;X;X;X;X;X;X;X;X;X;X;X;X;X;X;X;X;X;X;X;X;X;X;X;X;X;X;X;X;X;X",
";X;X;X;X;X;X;X;Xt 0 .   * * e w N k i J ;X;X;X;X;X;X;X;X;X;X;X;X;X;X;X;X;X;X;X;X;X;X;X;X;X;X;X;X;X;X",
";X;X;X;X;X;X;Xe q O X r M * % * e e 4 u k ;X;X;X;X;X;X;X;X;X;X;X;X;X;X;X;X;X;X;X;X;X;X;X;X;X;X;X;X;X",
";X;X;X;X;X;Xa j @ + e M * + % % * j t 3 u p J ;X;X;X;X;X;X;X;X;X;X;X;X;X;X;X;X;X;X;X;X;X;X;X;X;X;X;X",
";X;X;X;X;Xe * n a * r r * * % % r * t t 8 4 i k ;X;X;X;X;X;X;X;X;X;X;X;X;X;X;X;XL.A.;XY.K.K.;X;X;X;X",
";X;X;X;X;Xm * 8 j j r w r * *   . 0 w e k 4 4 i k 4.x.(.;X;X;X;X;X;X;X;X;XJ.V.J J J k B.Y.P.^ ;X;X;X",
";X;X;X;X;Xp n t v * w r * w e 0 . X * # # B d 1 4 6 8 3. X;X;X;X;X;XL.C.L 0 # & * q 9 Q I.! c ;X;X;X",
";X;X;X;X;X;Xv v v r * % * # & w 0 s *.#.F :.~.v.d 1 @ *..XXX;X;X;XJ.R 7 & 9 9 * 8 7 J K.V.J Y ;X;X;X",
";X;X;X;X;X;X;X;X;Xv #   . * 8 $ A y.b. X%Xn.).#X@Xc.; b. XU.6.#XW 4 @ 7 7 % @ @ + & a I Y Y T Y ;X;X",
";X;X;X;X;X;X;X;X;Xa.o.0 .   + b y.F..X{.*X.XF.{.|.OXoX).(.4.l _.U.4 t 7 & 7 7 t k 8 7 x ~ P c C.;X;X",
";X;X;X;X;X;X;X;X;X0.7.&.d + = 2.b.{..X(.oX=XF./.}.|.%X-X*X,.9 D.).W 8 9 7 7 & % & i q p N.T T L I ;X",
";X;X;X;X;X;X;X;Xb.0.-.7.-.r 2.D.F.~.(.(.{.@XOXn.oX}.@XOX#X6.C '.E.'.>.7 7 & + % + 7 e 7 z Z.T & % ;X",
";X;X;X;X;X;X;X;Xb.0.7.7.Z n x.F.F.b.{..X X.X=X~.F._._.&XG.q D.F.F.).].W 8 * @ @ * # # 0 4 4 e e ;X;X",
";X;X;X;X;X;X;X;Xj.r.7.o.i D n.F.D.j.j./.%X$X$X XD.].).$XG.y./.D.0.F.(.B 0 8 @ @ @ * 0 q p i a z ! ;X",
";X;X;X;X;X;X;X;Xi.-.q.V 1 :.D.E.D.D.j.j. X#X Xb.1.3.W..X XD.D.a.a.D.c.3 0 * + 0 8 # 0 p q p a P Y ;X",
";X;X;X;X;X;X;X;Xi.-.q.V S m.b.F.F.D.D.j. X#X#.# j N @./.].0.a.s.l./.B 9 * @ # L J * 8 i K p T N.;X;X",
";X;X;X;X;X;X;X;Xs.u.r.&.b.b.n.W.E.E.D.D. X~.# q ! B.! D.D.<.d.g.R.D 0 w @ 0 L R p 0 p a ~ a M.x ;X;X",
";X;X;X;X;X;X;X;X;X;Xu.-.n.n.b.D.D.W.W.F..Xc.O j P ~ U F.W.<.<.D.s X & 7 8 j k p 8 Y i E c p p 8 ;X;X",
";X;X;X;X;X;X;X;X;X;X;Xu.9.-.i.l.D.D.F.W.OX|.* 3 x c z.'.[.j.d.b o + & # * 8 & 9 K x i c 4 7 y P ;X;X",
";X;X;X;X;X;X;X;X;X;X;X;Xe. .| #.D.D.D.l.).*X.X5.@.x.]._.[.;X;X# & % 7 8 + o @ 7 7 + 0 8 j p 0 ;X;X;X",
";X;X;X;X;X;X;X;X;X;X;X;X;X;XX.8 f f.l.n.l./.#X$X X[.].].[.;X;X;X* * % w t * & e i # & p k p ;X;X;X;X",
";X;X;X;X;X;X;X;X;X;X;X;X;X;X;Xe o d :.p.j.l.n.D.R.D.n.n.W.;X;X;X% * * % & * + 8 a p 8 3 * ;X;X;X;X;X",
";X;X;X;X;X;X;X;X;X;X;X;XR U t 0 2 1 2 w d f @.5.5.;X;X;X;X;X;X;X;X* * % o o % % @ & 8 0 ;X;X;X;X;X;X",
";X;X;X;X;X;X;X;X;X;X;XW E Y L j p t t t i y k J k ^.;X;X;X;X;X;X;X* * * % o o & 7 q p ;X;X;X;X;X;X;X",
";X;X;X;X;X;X;X;X;X;XOXp.d t q q q q u y q q q 8 w ~./.;X;X;X;X;X;X;X% & + . + # 9 8 ;X;X;X;X;X;X;X;X",
";X;X;X;X;X;X;X;X.X.XOXoX{.H.z.5.#.$.+.D +.#.5.c.).W.0.;X;X;X;X;X;X;X+ % % o + + % * e ;X;X;X;X;X;X;X",
";X;X;X;X;X;X;X;Xb.g.s.h.m.W././.(.`.].[.}.[.+XOX'.u.e.;X;X;X;X;X;X* & * e q 3 + 8 q 0 ;X;X;X;X;X;X;X",
";X;X;X;X;X;X;X;Xa.i.u.e.9.9.0.0.u.y.u.i.p.g.s.h.f.9.;X;X;X;X;X;X;X0 * 8 i y q 0 q 0 ;X;X;X;X;X;X;X;X",
";X;X;X;X;X;X;X;Xi.9.9.q.9.0.e.e.w.u.u.p.w.u.u.i.i.9.;X;X;X;X;X;X;Xw 8 e t q 8 e q ;X;X;X;X;X;X;X;X;X",
";X;X;X;X;X;X;X;X;X7.r.-. .`  .| O.%.7.=.r.w.e.e.e.;X;X;X;X;X;X;X;X;X;X* r t e ;X;X;X;X;X;X;X;X;X;X;X",
";X;X;X;X;X;X;X;X;X;X9.r.| ' { ` ' ' ' ( ' 7.7.;.-.R.(.;X;X;X;X;X;X;X;X;X;X;X;X;X;X;X;X;X;X;X;X;X;X;X",
";X;X;X;X;X;X;X;X;X;X9.7.=.%.9.-.{ =.=.} } -.-. .7.l.!.E.!.(.;X;X;X;X;X;X;X;X;X;X;X;X;X;X;X;X;X;X;X;X",
";X;X;X;X;X;X;X;X;Xh.9.f.8.8.u.;.%.8.t.=.} { { =.9.8.k.R.R.E.!.T.;X;X;X;X;X;X;X;X;X;X;X;X;X;X;X;X;X;X",
";X;X;X;X;X;X;X/.m.H ;.p.8.t.p.8.=.8.t.;.=.;.7.=.9. .w.l.n.T.E.E.T.;X;X;X;X;X;X;X;X;X;X;X;X;X;X;X;X;X",
";X;X;X;X;XQ.)./.m.z.w.7.7.u.p.8.;.8.t.;.;.9.t.| =.{  .-.9.p.u.u.f.h.;X;X;X;X;X;X;X;X;X;X;X;X;X;X;X;X",
";X;X;X;X!.~.~.!.~.E.p.o.X.;.;. .=.7.8.=.=.9.9.r.A M b | 8.q.u.w.7.p.n.;X;X;X;X;X;X;X;X;X;X;X;X;X;X;X",
";X;X;Xu.n.!.j.i.9.-.: y m B B Z Z S G Z S j.!./.m.@.: 7.q.w.9.&.-.-.h.;X;X;X;X;X;X;X;X;X;X;X;X;X;X;X",
";X;X;Xu.i.e.&. .=.7.O.: * * 0 t j k k k j O.l.W.(.!.E.Q.!.T.e.[ ]  . .;X;X;X;X;X;X;X;X;X;X;X;X;X;X;X",
";XT.E.n.f.-.| 0.k.~.(.!.m.y.O.o.A A A S S |  .a./.Q.T.n.T.f.9.) g ] ` ;X;X;X;X;X;X;X;X;X;X;X;X;X;X;X",
";X-.l.l.-.`  .<.-.e.k.T./.'.{.`.!.Q.Q.E.R.g.-. .f.i.w.w.8.w.<.( - g ( ;X;X;X;X;X;X;X;X;X;X;X;X;X;X;X",
";X( -.` h ( ) | |  . .-.9.u.p.f.h.b.p.9.1.9.;.%.w.u.f.k.y.] ] > ;X;X;X;X;X;X;X;X;X;X;X;X;X;X;X;X;X;X",
";X;Xh , g g g ) [ ]  .-.;.8.9.8.9.1. . .&.%.%.` 8.T.Q.E.E.&., > ;X;X;X;X;X;X;X;X;X;X;X;X;X;X;X;X;X;X",
";X;X;X> ;Xg g g g g ) [ ] &.%.%.-.&.| O.` ] ` ( ` g.f.9.;.] , ;X;X;X;X;X;X;X;X;X;X;X;X;X;X;X;X;X;X;X",
";X;X;X;X;X;X;Xg g g , g g h _ ) ` h h h h g > ; h ` ` ) ( ) ;X;X;X;X;X;X;X;X;X;X;X;X;X;X;X;X;X;X;X;X",
";X;X;X;X;X;X;X;X;X;X;X> > , h ( h h h < ; ; - ; > g h g ;X;X;X;X;X;X;X;X;X;X;X;X;X;X;X;X;X;X;X;X;X;X",
";X;X;X;X;X;X;X;X;X;X;X;X;X;X;X;X;X;X;X;X;X;X;X;X;X;X;X;X;X;X;X;X;X;X;X;X;X;X;X;X;X;X;X;X;X;X;X;X;X;X"
};
