/* XPM */
static char *e08e3919464e453bba873fd07b76251e9scQtEDMKZ5IG3J5[] = {
/* columns rows colors chars-per-pixel */
"50 50 131 2 ",
"   c #170E07",
".  c #1B0E04",
"X  c #190F09",
"o  c #1D1007",
"O  c #1D130A",
"+  c #201207",
"@  c #23150C",
"#  c #28170E",
"$  c #24180F",
"%  c #291A0E",
"&  c #241710",
"*  c #261A12",
"=  c #2B1D14",
"-  c #2B1E18",
";  c #301F16",
":  c #2D2016",
">  c #2D2219",
",  c #312217",
"<  c #342319",
"1  c #34231B",
"2  c #312519",
"3  c #322419",
"4  c #31241B",
"5  c #33251A",
"6  c #32241B",
"7  c #32261A",
"8  c #33271B",
"9  c #352518",
"0  c #34261B",
"q  c #32231C",
"w  c #31241C",
"e  c #32251C",
"r  c #33251C",
"t  c #33241D",
"y  c #32251D",
"u  c #30261D",
"i  c #33261D",
"p  c #31271E",
"a  c #33261E",
"s  c #35241C",
"d  c #36251D",
"f  c #35271C",
"g  c #34261D",
"h  c #37261C",
"j  c #34251E",
"k  c #34271E",
"l  c #35271E",
"z  c #35261F",
"x  c #34271F",
"c  c #37261E",
"v  c #32241B",
"b  c #38271D",
"n  c #38271F",
"m  c #38271C",
"M  c #32281E",
"N  c #32281F",
"B  c #34281C",
"V  c #35291D",
"C  c #36281D",
"Z  c #35281F",
"A  c #37291E",
"S  c #36281F",
"D  c #362A1E",
"F  c #372B1F",
"G  c #36281E",
"H  c #3A281C",
"J  c #3B291D",
"K  c #3A2A1D",
"L  c #3A291F",
"P  c #382A1F",
"I  c #3C2A1E",
"U  c #3C2C1F",
"Y  c #392A1F",
"T  c #352621",
"R  c #362720",
"E  c #362720",
"W  c #332920",
"Q  c #352820",
"!  c #362920",
"~  c #372920",
"^  c #372821",
"/  c #362921",
"(  c #372A21",
")  c #352B22",
"_  c #372A22",
"`  c #372D24",
"'  c #362920",
"]  c #392B20",
"[  c #382A21",
"{  c #3B2A20",
"}  c #382B22",
"|  c #392A23",
" . c #382B23",
".. c #392D21",
"X. c #3A2C21",
"o. c #392C23",
"O. c #3B2D22",
"+. c #3A2C23",
"@. c #3C2E23",
"#. c #3F2F22",
"$. c #382924",
"%. c #3A2D24",
"&. c #3B2D24",
"*. c #3A2D25",
"=. c #3D2C24",
"-. c #3C2E25",
";. c #3C2D26",
":. c #3C2F26",
">. c #3D2F26",
",. c #3B2D23",
"<. c #3E2F28",
"1. c #3E3027",
"2. c #3E3026",
"3. c #3F3128",
"4. c #3F3128",
"5. c #412F23",
"6. c #402F25",
"7. c #402F27",
"8. c #413026",
"9. c #413226",
"0. c #413028",
"q. c #403229",
"w. c #40332A",
"e. c #443329",
"r. c #44332B",
"t. c #41342B",
"y. c #42342B",
"u. c #42342A",
"i. c #45392D",
"p. c #4A382C",
"a. c #4A3A2D",
/* pixels */
"O @ * u u u * X > r r > - - ; 1 # ; 1 m [ - @ - * # - [ $.- * = 2 F S F : # ^ S M > $ $ * * O O * * ",
"O @ * - u > > O r ^ ^ r = = ; ; # ; 1 J @.= o % = * - T R - = # 2 2.F @.: @ r ^ S > * O > * O * * * ",
"O O & * > > * O : r g , = * ; ; : , s U =.- @ < b g R R T T - # = , f F * O 2 S 2 > O O * * O * * * ",
"O O O * * > O   - > < = % * = ; f f s +.1.> = @.0.0.=.^ t $.; - # = , , # O - 2 > > O * * * * > * * ",
"* O O O * * * O - < > - % = = ; , , , F 2., - @.=.3.$.q q $.q = , % , , * * - > : : & O : & * * * > ",
"* & O O O * * > > < - * = = % % @ % % 9 +.> * 2 r [ g < ; T T = % + % : - < > 2 - * * & & O X O * * ",
"* O X X O * > > - - = # = ; = # o % : , +.2 # = - 2 T - ; t 1 = @ . @ = : g 2 2 # * * O * X   O O O ",
"O X O O & & * * - - * # ; T g - @ , : : S S : : - < ; ; ; ; ; % , + = = - 2 * : # : : : > * O * * * ",
"  X O * - * O O * * * u 3.y.r.b - M F +.2 2 ..+ @ % ; ; % + + + % @ : , : @ * # * * N ` W u * O * * ",
"X O O * O * * u - - * * g +.0.S : > > ) V V F % + = , = ; % + # : : % % : : : : * > N W u u * * * * ",
"* * - * O O - ` ) p * u r ^ 0.^ F 2 : M V V F % : +.8.2.H 9 ; 5.f f % @ : 2.) ) * > u u u > > * * * ",
"- u u u * X u ` ` W u u r g =.g y.M % , ..V 9 : , K 8.e.H % 9 p.K #.; + F 4.+.1.> * * > > u > > O * ",
"* * u * * * - p W ) - - - - b < ^ > O > ..2 2 ; % H I J H ; 9 H , U : @ M 1.V ) > : O * > > > & O * ",
"* * * * * u u u p p * * @ # g g # $ O > ..2 : ; % I J H 5.p.I # , F s : F ) p M : O O * * > &   O O ",
"u * * u u u u u > u * * * * b S : > $ > 9 % % ; % J 9 % I 5.H % s f 2 2 M r > > : O O * - : = * * * ",
"u - - * * * * * * u > - = = s < 2.4.u u 9 + % 9 H 9 9 H I 9 9 p.s = : : : : : : : * > * > > > r > * ",
"> u > O $ - * * # : = : , % ; ; 2.i.4.7 % @ @ , V : = f F S @.8.S = = : = : : * : * = * - : g [ T - ",
"* > > * * * @ @ 2 2 % @ = = s J F 2.F : ; : : 9 2 ; = , 2 < M =.^ > - = % = 2 S % * * ; 2 r g 2 > - ",
"* > > * : = O O 1.^ @ # ; s 5.r.F 9 8 : : 9 f , : : = : - = : ^ ^ r < = @ # g 3.@ @ * 1 K ^ 2 - > * ",
"* * > * * : $ O +.M @ @ : s I 5.f 2 f V : f V % : % : : - % = g r < < - @ @ g =.@ @ = , g g : - - * ",
"X * O O * * * * : : + @ = = , , F f F F , , : @ % * : : = @ # : * * = - % % : < + # % = - ; , < - - ",
"X * O X O * = : * : @ @ = * , , F , K F s : % % @ * - - # @ # : @ + % < : - - * + @ = * % * - < = - ",
"* * * * : > : : - > * * 2 < 1 , 2 : % 9 F : % , s g g < = * : r : = - r 2 < , = @ * ; - - = = - # * ",
"> p u u > W r < = ; * , K K b 1 , @ + : +., : 2.r.0.3.[ 2 2 +.1.1.[ S [ g r s - = ; t ^ s , % + O @ ",
"* u u u u u u u = = : 2 , s K 1 % % @ : F , : +.=.y.8.S : < ^ +.S S S : ^ S * ; = , > 2 g , @ @ @ * ",
"u u u * * * * u O # = = : S 5.U : 9 F 2.e.F , K S S , - 2 &.&.g S S 2 = > < @ @ % - - : [ s * - > < ",
"* u * * u * O * o @ = * % S 8.@.: V e.i.2.2...f S ^ 2 - r 1.1.r +.s , = : - o + * : # : +.s * < R S ",
"* u u * * * u p = - ; * % 2 U s @ % f f , V 2.: : 2 g > : ^ &.+.g = = - g [ = = = - # - +.: o # - - ",
"u u >   O * W i.g 2 < = % , m = + o @ % # 2 f # o * : - - 2 =.0.- + % , &.i.[ K = : % - [ - . O . O ",
"> u * O * > W ` g : : - % , , , ; + + ; 2 K , @ @ % - < 2 g ^ +.- + * s ^ =.g < = % * = , = # + O @ ",
"O * * * u W u * : * = = @ @ % , #., % V 4.F ; * , - 2 [ [ 2 : > < * S +.r > = = - @ # @ + - < = @ - ",
"* O O O W ` u * - % = , + . + % i.2 ; V e.9 # : % = g 0.@.- = > - * &.3.< - * , : @ # + . - ) < @ - ",
"O O * p u u * > * * p u O : M > F , : f #.8 : f +.@ = @.2 % * - = @.=.S g < - < < - @ $ > > > > * = ",
"O * u ) u u u W > u W W : > 4.2.+., = , S f 9 2.@.@ # [ - @ * = U 5.+.K [ K - * ^ > - : ^ ^ > > O * ",
"  * u u u * u p * * W M - r 2.` 2 , : , f , 2 @.1.# # 2 ; # * - F f f F g 2 < = 2 : - > [ g - * O * ",
"* O O * > > * O * * u > = > ) > @ % : , F , : f S * # - * , s , , = f @.= @ - < > - # : r > @ O @ * ",
"u O O * u u O O - - - - - < q < . @ : f f : : f > > = @ @ S [ * = % F F % o * ; q - - # - * O . & & ",
"* O O O * O * * * = = # - , q > # , f f , % % 2 2 +.2 # = +.S @ % % % : * % = * = # * * - * * * = = ",
"  O O O O O O * * * @ + * - = = : F 2.V % + + 2 ^ 1.+.- : [ 2 @ + # o + = , = = X @ * * = * # - > > ",
"O O O   O O * > = = * @ = ; - - % V #.V : @ % f S 1.S : s g = + + = + + = : = = O * * = = @ @ = > * ",
"& O > ) W T > @ q $.3.T - - < > = , F 2.2.: o % - @ - &.+.= = - f 1.K @.< % 1.^ ^ < * * - - # * - : ",
"& O * p p > < * T <.:.T - - q g = , f +.2.% o : % @ = [ +.: = = f 8.+.8.r * 1.[ &.^ - * - % @ * - : ",
"& O * u p > - O > R ^ > # = > < , 8 s @.e.: % 8 S - - < 2 2 < - S 1.F @.- @ ^ S r 2 - * = * @ - = * ",
"& O : > p > O   = > r > - = = = S f s 2.e., % 2.y.K > < , g < - F 2.S 2 @ . > r > - @ @ * * * > - = ",
"* * * > > : O O - - ; - # # - - 2 2 2 +.8., % 2.0.S 2 < : 2 2 = K F f s # @ < r q - & @ = # * = * - ",
"* > * * * = = > < - - & & & = - : , 2 S F : = +.1.> * @ # - ^ [ : : 9 f > > < - = # . @ * * @ * * & ",
"O > * O * = - r > - * & @ & # = # : f f F : = F =.> @ @ . # ^ 0.: % : , > g - = @ @ . X @ & @ & * * ",
"O u * * * * * > - * # - # # @ & @ , 8 , 9 % % S ^ < > < = * : g F : % : < g < = * = # & * X . @ * & ",
"O * * u O   * N * O * * ) u O O O : 2.u B $ @ : S +.+.2 < . * q f 8.% . s [ * # $ * > - X X X & > * ",
"  * * u *   > p * O * * ) p X O O : ` 7 V $ @ : 2 +.+.2 < O * < 9 #.% o 2 [ * # $ # p - X X   & > * "
};
