/* XPM */
static char *result[] = {
/* columns rows colors chars-per-pixel */
"50 50 217 2 ",
"   c #090808",
".  c #140E0B",
"X  c #1B0E15",
"o  c #161313",
"O  c #1B1516",
"+  c #1D1A1A",
"@  c #18171B",
"#  c #111012",
"$  c #23151B",
"%  c #231D1E",
"&  c #271A1C",
"*  c #33191A",
"=  c #22201E",
"-  c #1B1D21",
";  c #241E21",
":  c #2B1C23",
">  c #2C1D28",
",  c #391E24",
"<  c #252222",
"1  c #2A2525",
"2  c #2D292A",
"3  c #29282A",
"4  c #3B232A",
"5  c #322D2D",
"6  c #362829",
"7  c #282D35",
"8  c #332E31",
"9  c #353234",
"0  c #3A383A",
"q  c #49121B",
"w  c #450F1A",
"e  c #532614",
"r  c #51210C",
"t  c #4E1622",
"y  c #551B26",
"u  c #591B26",
"i  c #691D29",
"p  c #721826",
"a  c #48282A",
"s  c #5A212C",
"d  c #55282C",
"f  c #583327",
"g  c #4C343D",
"h  c #433D3D",
"j  c #543439",
"k  c #48302E",
"l  c #6A3929",
"z  c #622632",
"x  c #6B2C3A",
"c  c #6A2935",
"v  c #772A37",
"b  c #6A353B",
"n  c #75323E",
"m  c #5F412D",
"M  c #764538",
"N  c #735638",
"B  c #784629",
"V  c #1C3856",
"C  c #3C3D42",
"Z  c #233E60",
"A  c #482B42",
"S  c #493A4A",
"D  c #563741",
"F  c #503851",
"G  c #663B46",
"H  c #783745",
"J  c #613F51",
"K  c #4B3768",
"L  c #3D4248",
"P  c #2E4559",
"I  c #134071",
"U  c #2C5173",
"Y  c #44444A",
"T  c #464A55",
"R  c #5A4857",
"E  c #4B545C",
"W  c #4A5359",
"Q  c #52585C",
"!  c #554048",
"~  c #7C5449",
"^  c #6B4759",
"/  c #754A55",
"(  c #794856",
")  c #65535C",
"_  c #654948",
"`  c #7F6244",
"'  c #5F4D63",
"]  c #5A5A65",
"[  c #69546A",
"{  c #785A67",
"}  c #735978",
"|  c #695570",
" . c #616771",
".. c #776774",
"X. c #6B747E",
"o. c #776B63",
"O. c #840403",
"+. c #862D39",
"@. c #932A3A",
"#. c #8C323F",
"$. c #B02F3D",
"%. c #DB0200",
"&. c #C6251D",
"*. c #854A28",
"=. c #A26D3D",
"-. c #883A49",
";. c #943948",
":. c #AB3D4A",
">. c #86404F",
",. c #885D47",
"<. c #984453",
"1. c #824E5A",
"2. c #AA4554",
"3. c #8C6658",
"4. c #967757",
"5. c #916B55",
"6. c #A16F5A",
"7. c #895766",
"8. c #8A7579",
"9. c #8F676D",
"0. c #A27F60",
"q. c #C64C55",
"w. c #B68766",
"e. c #B08F6F",
"r. c #B8A07D",
"t. c #CD8A5A",
"y. c #EE9A5B",
"u. c #CE9B6F",
"i. c #EA9C61",
"p. c #C8A27C",
"a. c #D7A67B",
"s. c #EDA468",
"d. c #FCAC6A",
"f. c #F4B376",
"g. c #1D4E84",
"h. c #245389",
"j. c #325D87",
"k. c #275A95",
"l. c #2E6395",
"z. c #285DA1",
"x. c #3265A7",
"c. c #3975BC",
"v. c #316CA8",
"b. c #705486",
"n. c #7A7685",
"m. c #766D90",
"M. c #795DA3",
"N. c #7A65A5",
"B. c #3577CA",
"V. c #407FCC",
"C. c #88768C",
"Z. c #847198",
"A. c #866195",
"S. c #877CA0",
"D. c #AC7994",
"F. c #8F76CF",
"G. c #7E838A",
"H. c #4F80BF",
"J. c #6A8AA9",
"K. c #4487D2",
"L. c #4292EB",
"P. c #4390E8",
"I. c #968885",
"U. c #888895",
"Y. c #948A97",
"T. c #8A959C",
"R. c #92979E",
"E. c #B49885",
"W. c #AB9896",
"Q. c #BBB199",
"!. c #949DA3",
"~. c #989FA6",
"^. c #8E9AA0",
"/. c #A796A5",
"(. c #9AA4AB",
"). c #B7A7A4",
"_. c #A7B1B7",
"`. c #C7A786",
"'. c #D7B897",
"]. c #D4B28B",
"[. c #E4B381",
"{. c #FCBE82",
"}. c #F6B982",
"|. c #CCB2AC",
" X c #DAC49E",
".X c #F5C28F",
"XX c #FDC185",
"oX c #E3C499",
"OX c #EDCB9C",
"+X c #FACE9C",
"@X c #F6C998",
"#X c #FDD29C",
"$X c #EEC28B",
"%X c #DACBB0",
"&X c #EFD2A8",
"*X c #F3D4A5",
"=X c #FAD4A3",
"-X c #FDDBA6",
";X c #FCDBAC",
":X c #F7D7AC",
">X c #FCDEB2",
",X c #F5D9B8",
"<X c #E9D2AD",
"1X c #FFE2A9",
"2X c #FFE3B4",
"3X c #FFE5BA",
"4X c #FFEAB4",
"5X c #FFF5BF",
"6X c #A592C7",
"7X c #B5BCC2",
"8X c #CBB4C9",
"9X c #B4C1C9",
"0X c #CBD3D7",
"qX c #D1D8DB",
"wX c #EEDFCC",
"eX c #E8E9EA",
"rX c None",
/* pixels */
"rXrXrXrXrXrXrXrXrXrXrXrXrXrXrXrXrXrXrXrXrXrXrXrXrXrXrXrXrXrXrXrXrXrXrXrXrXrXrXrXrXrXrXrXrXrXrXrXrXrX",
"rXrXrXrXrXrXrXrXrXrXrXrXrXrXrXrXrXrXrXrXrXrXrXrXrXrXrXrXrXrXrXrXrXrXrXrXrXrXrXrXrXrXrXrXrXrXrXrXrXrX",
"rXrXrXrXrXrXrXrXrXrXrXrXrXrXrXrXrXrXrXrXrXrXrXrXY T L T Y rXrXrXrXrXrXrXrXrXrXrXrXrXrXrXrXrXrXrXrXrX",
"rXrXrXrXrXrXrXrXrXrXrXrXrXrXrXrXrXrXrXrXrXrX0 0 L C L L C rXrXrXrXrXrXrXrXrXrXrXrXrXrXrXrXrXrXrXrXrX",
"rXrXrXrXrXrXrXrXrXrXrXrXrXrXrXrXrXrXrXW rX9 9 9 8 9 9 9 0 rXrXrXrXrXrXrXrXrXrXrXrXrXrXrXrXrXrXrXrXrX",
"rXrXrXrXrXrXrXrXrXrXrXrXrXrXrXrXrXrXC 0 9 5 2 1 < 3 2 5 9 rXC Y rXrXrXrXrXrXrXrXrXrXrXrXrXrXrXrXrXrX",
"rXrXrXrXrXrXrXrXrXrXrXrXrXrXrXrXrX7 2 1 1 < + + % ; < 5 8 9 C L L rXrXrXrXrXrXrXrXrXrXrXrXrXrXrXrXrX",
"rXrXrXrXrXrXrXrXrXrXrXrXrXrXrXrX3 1 = < @ O O o O % % < 2 9 C C C rXrXrXrXrXrXrXrXrXrXrXrXrXrXrXrXrX",
"rXrXrXrXrXrXrXrXrXrXrXrXrXrXrXrX< = o . . o o o o O < 6 1 9 0 9 0 rXrXrXrXrXrXrXrXrXrXrXrXrXrXrXrXrX",
"rXrXrXrXrXrXrXrXrXrXrXrXrXrXrX7 + o - P 7 . o # o + & 5 5 5 9 9 9 rXrXrXrXrXrXrXrXrXrXrXrXrXrXrXrXrX",
"rXrXrXrXrXrXrXrXrXrXrXrXrXrXrX+ + U l.v.v.@ # o o o O = 6 2 9 9 rXrXrXrXrXrXrXrXrXrXrXrXrXrXrXrXrXrX",
"rXrXrXrXrXrXrXrXrXrXrXrXrXrX+ = j.l.k.g.h.Z . # o o $ = 2 1 5 5 2 rXrXrXrXrXrXrXrXrXrXrXrXrXrXrXrXrX",
"rXrXrXrXrXrXrXrXrXrXrXrXrXrX= j.l.g.g.P V I # . = o = < 2 2 1 5 3 rXrXrXrXrXrXrXrXrXrXrXrXrXrXrXrXrX",
"rXrXrXrXrXrXrXrXrXrXrXrXrXrXU x.k.j.t.s.u.o._ t.s.m @ 2 2 9 1 5 3 rXrXrXrXrXrXrXrXrXrXrXrXrXrXrXrXrX",
"rXrXrXrXrXrXrXrXrXrXrXrXrXrXc.z.z.w.d.}.XX{.XXXXd.y.k 8 6 9 2 < < rXrXrXrXrXrXrXrXrXrXrXrXrXrXrXrXrX",
"rXrXrXrXrXrXrXrXrXrXrXrXrXrXK.B.m.f.$X.X.X.X.XXXf.t.*.1 9 5 5 = + rXrXrXrXrXrXrXrXrXrXrXrXrXrXrXrXrX",
"rXrXrXrXrXrXrXrXrXrXrXrXrXK.K.V.o.$X1X+X+X=X+X+X@Xs.3.8 5 6 5 ; @ rXrXrXrXrXrXrXrXrXrXrXrXrXrXrXrXrX",
"rXrXrXrXrXrXrXrXrXrXrXrXrXK.L.K.4.r.].&X>X>X:X>X+X{.6.C 2 8 5 3 @ rXrXrXrXrXrXrXrXrXrXrXrXrXrXrXrXrX",
"rXrXrXrXrXrXrXrXrXrXrXrXrXK.L.J.-X*X Xr. X3X>X2X|.C.' R 5 5 5 1 @ rXrXrXrXrXrXrXrXrXrXrXrXrXrXrXrXrX",
"rXrXrXrXrXrXrXrXrXrXrXrXrXV.P.P N 3.=.5.0.OX3X|.Z.F t q * 2 3 < rXrXrXrXrXrXrXrXrXrXrXrXrXrXrXrXrXrX",
"rXrXrXrXrXrXrXrXrXrXrXrXrXc.B.@ N W.E.=.).*XwX6X1.&.%.O.* 1 1 < rXrXrXrXrXrXrXrXrXrXrXrXrXrXrXrXrXrX",
"rXrXrXrXrXrXrXrXrXrXrXrXrXx.x.  e.%XQ.%XwX,X|.8XD.$.@.J S ; 1 1 rXrXrXrXrXrXrXrXrXrXrXrXrXrXrXrXrXrX",
"rXrXrXrXrXrXrXrXrXrXrXrXrXh.k.rX4.5X*X:X2X&X>X:X/.Z.Y.m.o.6 % rXrXrXrXrXrXrXrXrXrXrXrXrXrXrXrXrXrXrX",
"rXrXrXrXrXrXrXrXrXrXrXrXrXh.rXrX4.-X@X:X2X2X>X>XoX+X-XE.`.6 @ rXrXrXrXrX0XqXeXrXrXrXrXrXrXrXrXrXrXrX",
"rXrXrXrXrXq.:.@.y rXrXrXrXrXrXrXrXoX1X2X2X:X>X-X&X2X3XOX` # = rXrXrXrXrXrXrX(.0XeXrXrXrXrXrXrXrXrXrX",
"rXrXrXrXrXrXq.q.;.x rXrXrXrXrXrXrXrX X&X:X:X-X-X;XoX`.rXrXrX+ rXrXrXrXrXrXrXrXn.(.0XeXrXrXrXrXrXrXrX",
"rXrXrXrXrXrXrXrXrX7.C.[ rXrXrXrXrXrXrXrXrXp.a.s.,.-   rXrXrXrXrXrXrXrXrXrXrXrXrX .U.7XqXrXrXrXrXrXrX",
"rXrXrXrXrXrXrXrXrXrXrXC.C.{ rXrXrXrXrX[.+X+X.Xa.[ } Y ; rXrXrXrXrXrXrXrXrXrXrXrX]  .!._.0XrXrXrXrXrX",
"rXrXrXrXrXrXrXrXrXrXrXrXrX1.n / rXrXrX+X2X>XOX9.m...} S rXrXrXrXrXrXrXrXrXrXrXrXrXQ  .(._.9XrXrXrXrX",
"rXrXrXrXrXrXrXrXrXrXrXrXrXrXrXC.U.C.OX2X:X2X;XC.} Z.' : o rXrXrXrXrXrXrXrXrXrXrXrXE E n.R.(.rXrXrXrX",
"rXrXrXrXrXrXrXrXrXrXrXrXrXrXrXrXrX).3XoX[.2X].{ ) ' ' , o O rXrXrXrXrXrXrXrXrXrXrXrXW ] T.R.~.rXrXrX",
"rXrXrXrXrXrXrXrXrXrXrXrXrXrXrXrXrX,X3Xr.a.4X'.`.p.`.{ d o % rXrXrXrXrXm rXrXrXrXrXrXW Q { Y.!.rXrXrX",
"rXrXrXrXrXrXrXrXrXrXrXrXrXrXrXrXrXrXQ.rX[.;X>X=X+X#Xw.^ rX% 1 rXrXrXrXY rXrXrXrXrXrXrXE H 9.!.R.rXrX",
"rXrXrXrXrXrXrXrXrXrXrXrXrXrXrXrXrXrXE Q rX-X4X1X-X1Xu.^ rX. 1 5 h h h rXrXrXrXrXrXrXrXW z <.(.!.rXrX",
"rXrXrXrXrXrXrXrXrXrXrXrXrXrXrXrXrXrXrXe.a.5.E.].].p./ j J rXrXrX9 rXrXrXrXrXrXrXrXrXrXY i ;.I.~.rXrX",
"rXrXrXrXrXrXrXrXrXrXrXrXrXrXrXrXrXrXrXrX*Xl ( l f l l r rX' | ( rXrXrXrXrXrXrXrX2.rXrXs u ;.7.R.rXrX",
"rXrXrXrXrXrXrXrXrXrXrXrXrXrXrXrXrXrXrXe.4.e *.*.r l B d rXrXrXG i +.;.2.rXrX@.#.-.v @.y u -.8.G.rXrX",
"rXrXrXrXrXrXrXrXrXrXrXrXrXrXrXrXrXrXrX/ d j M f l l a A A rXrXrXrXc v ;.<.<.c c c p ;.q s H H G.rXrX",
"rXrXrXrXrXrXrXrXrXrXrXrXrXrXrXrXrXrXrX} f F 4 X ; $ * G b.rXrXrXrXs y y z -.H s y n z w x H rXG.rXrX",
"rXrXrXrXrXrXrXrXrXrXrXrXrXrXrXrXrXrXK N.D D * $ : : : a A.N.rXrXrXrXrXrXt u u q w y w z x J rXrXrXrX",
"rXrXrXrXrXrXrXrXrXrXrXrXrXrXrXrXrXrX> F.b.k : : : : 6 & j /.rXrXrXrXrXrXs s t t u u x x x 1.n.rXrXrX",
"rXrXrXrXrXrXrXrXrXrXrXrXrXrXrXrXrXrX$ F G * : : $ $ : h R ..rXrXrXrXrXrXG >.<.<.>.H c R / 9.rXrXrXrX",
"rXrXrXrXrXrXrXrXrXrXrXrXrXrXrXrXrXrX> 2 & : : $ rXX X ) )...rXrXrXrXrXrXrXrXrXrXv ^ rXrXG.U.rXrXrXrX",
"rXrXrXrXrXrXrXrXrXrXrXrXrXrXrXrXrXrX4 g 6 & $ O rXrX$ 1 ! rXrXrXrXrXrXrXrXrXrXrX9.G.rXrXrXrXrXrXrXrX",
"rXrXrXrXrXrXrXrXrXrXrXrXrXrXrXrXrXrXD D 4 : $ rXrXrXrX4 D rXrXrXrXrXrXrXrXrXrXrXrXrXrXrXrXrXrXrXrXrX",
"rXrXrXrXrXrXrXrXrXrXrXrXrXrXrXrXrXrXrXj 4 rXrXrXrXrXrXa ( rXrXrXrXrXrXrXrXrXrXrXrXrXrXrXrXrXrXrXrXrX",
"rXrXrXrXrXrXrXrXrXrXrXrXrXrXrXrXrXrXrXj rXrXrXrXrXrXrX4 ( rXrXrXrXrXrXrXrXrXrXrXrXrXrXrXrXrXrXrXrXrX",
"rXrXrXrXrXrXrXrXrXrXrXrXrXrXrXrXrXrXrXg rXrXrXrXrXrXrXrX_ rXrXrXrXrXrXrXrXrXrXrXrXrXrXrXrXrXrXrXrXrX",
"rXrXrXrXrXrXrXrXrXrXrXrXrXrXrXrXrXrXrXg rXrXrXrXrXrXrXrXrXrXrXrXrXrXrXrXrXrXrXrXrXrXrXrXrXrXrXrXrXrX",
"rXrXrXrXrXrXrXrXrXrXrXrXrXrXrXrXrXrXrXrXrXrXrXrXrXrXrXrXrXrXrXrXrXrXrXrXrXrXrXrXrXrXrXrXrXrXrXrXrXrX"
};
