/* XPM */
static char *result[] = {
/* columns rows colors chars-per-pixel */
"50 50 210 2 ",
"   c #111616",
".  c #151816",
"X  c #151D1C",
"o  c #191E1D",
"O  c #3C141E",
"+  c #33191F",
"@  c #19201F",
"#  c #17201F",
"$  c #36301F",
"%  c #151D23",
"&  c #191F23",
"*  c #351D24",
"=  c #3C1C23",
"-  c #3E1E28",
";  c #162224",
":  c #1C2423",
">  c #142729",
",  c #1C252A",
"<  c #152A2C",
"1  c #1C2B2C",
"2  c #1F2827",
"3  c #142F31",
"4  c #1A2F31",
"5  c #1C3434",
"6  c #1B3739",
"7  c #1C3B3C",
"8  c #15393A",
"9  c #222625",
"0  c #222827",
"q  c #2B2629",
"w  c #232B2B",
"e  c #2B2D2D",
"r  c #2B2727",
"t  c #352226",
"y  c #3A2227",
"u  c #342629",
"i  c #3C2429",
"p  c #342A2C",
"a  c #3B292C",
"s  c #27302F",
"d  c #2A312E",
"f  c #2C3025",
"g  c #3C3120",
"h  c #33362C",
"j  c #313126",
"k  c #232D31",
"l  c #2A2E31",
"z  c #332C31",
"x  c #3B2E34",
"c  c #243334",
"v  c #2B3433",
"b  c #2D3836",
"n  c #22363A",
"m  c #2B3738",
"M  c #233A3C",
"N  c #2C3A3A",
"B  c #323435",
"V  c #3C3235",
"C  c #333936",
"Z  c #3C3B33",
"A  c #34363B",
"S  c #3B3138",
"D  c #333C3B",
"F  c #3A3D3C",
"G  c #45141F",
"H  c #660807",
"J  c #441C26",
"K  c #4A1B26",
"L  c #441F28",
"P  c #4A1E29",
"I  c #501824",
"U  c #44232A",
"Y  c #4A222C",
"T  c #44282F",
"R  c #53232E",
"E  c #4A3724",
"W  c #453C2C",
"Q  c #4E3C23",
"!  c #533E27",
"~  c #442B31",
"^  c #4C2630",
"/  c #502932",
"(  c #413335",
")  c #443E32",
"_  c #603F3D",
"`  c #79382D",
"'  c #34413E",
"]  c #3A413F",
"[  c #384C3F",
"{  c #4F432F",
"}  c #52432C",
"|  c #594229",
" . c #454134",
".. c #4A4434",
"X. c #49483A",
"o. c #5A4632",
"O. c #534834",
"+. c #5D4B33",
"@. c #534B3D",
"#. c #594B3A",
"$. c #47513E",
"%. c #57573E",
"&. c #654D36",
"*. c #615437",
"=. c #63523C",
"-. c #6B543D",
";. c #6B5638",
":. c #1E3C40",
">. c #243E41",
",. c #2D3E41",
"<. c #343D41",
"1. c #3C3F41",
"2. c #1E4242",
"3. c #1D4A4C",
"4. c #1E5658",
"5. c #224243",
"6. c #2C4244",
"7. c #234649",
"8. c #224B4C",
"9. c #2F494E",
"0. c #354242",
"q. c #3B4444",
"w. c #3D4846",
"e. c #3C4648",
"r. c #33494D",
"t. c #3C4A4C",
"y. c #234F51",
"u. c #334D53",
"i. c #3A4D51",
"p. c #225657",
"a. c #3D5255",
"s. c #3C575C",
"d. c #404645",
"f. c #424945",
"g. c #434C4C",
"h. c #494E4C",
"j. c #494B40",
"k. c #534E44",
"l. c #46514E",
"z. c #48534B",
"x. c #5C5341",
"c. c #54534B",
"v. c #595548",
"b. c #484F50",
"n. c #445151",
"m. c #4C5554",
"M. c #47585A",
"N. c #535C5B",
"B. c #555956",
"V. c #745A43",
"C. c #665144",
"Z. c #5A615D",
"A. c #56675F",
"S. c #7D6449",
"D. c #736F5E",
"F. c #445B61",
"G. c #5C6463",
"H. c #5A6865",
"J. c #636966",
"K. c #636B6B",
"L. c #6A6F6A",
"P. c #636864",
"I. c #69716D",
"U. c #647369",
"Y. c #666F72",
"T. c #6C7472",
"R. c #6F7A76",
"E. c #657071",
"W. c #747C7B",
"Q. c #797F7D",
"!. c #737A76",
"~. c #860605",
"^. c #9D0B08",
"/. c #981C1A",
"(. c #A40906",
"). c #B3120B",
"_. c #BF160D",
"`. c #A81412",
"'. c #BC1F12",
"]. c #A42B1F",
"[. c #B72D28",
"{. c #BC3724",
"}. c #CE1F12",
"|. c #C81B0F",
" X c #CE2A18",
".X c #D92916",
"XX c #DB2D18",
"oX c #E0361C",
"OX c #D42C23",
"+X c #CC3229",
"@X c #D13E29",
"#X c #CA3B30",
"$X c #C52B25",
"%X c #E53D21",
"&X c #8A4D38",
"*X c #B5442D",
"=X c #D74937",
"-X c #E04123",
";X c #84664A",
":X c #83684A",
">X c #8C785D",
",X c #9A7A5B",
"<X c #DC6F4D",
"1X c #7F8783",
"2X c #838B89",
"3X c #8A918F",
"4X c #8C9492",
"5X c #939590",
"6X c #9AA09E",
"7X c None",
/* pixels */
"7X7X7X7X7X7X7X7X7X7X7X7X7X7X7X7X7X7X7X7X7X7X7X7X7X7X7X7X7X7X7X7X7X7X7X7X7X7X7X7X7X7X7X7X7X7X7X7X7X7X",
"7X7X7X7X7X].H 7X7X7X7X7X7X7X7X7X7X7X7X7X7X7X7X7X7X7X7X7X7X7X7X7X7X7X7X7X7X7X7X7X7X7X7X7X7X7X7X7X7X7X",
"7X7X7X7X/.^.~./.7X7X7X7X7X7X7X7X7X7X7X7X7X7X7X7X7X7X7X7X7X7X7X7X7X7X7X7X7X7X7X7X7X7X7X7X7X7X7X7X7X7X",
"7X7X7X7X[.`.`.+X[.7X7X7X7X7X7X7X7X7X7X7X7X7X7X7X7X7X7X7X7X7X7X7X7X7X7X7X7X7X7X7X7X7X7X7X7X7X7X7X7X7X",
"7X7X7X#XOXOX$X`.~.~.7X7X7X7X7X7X7X7X7X7X7X7X7X7X7X7X7X7X7X7X7X7X7X7X7X7X7X7X7X7X7X7X7X7X7X7X7X7X7X7X",
"7X7X7X=X=XOX).(.(.^.7X7X7X7X7X7X7X7X7X7X7X7X7X7X7X7X7X7X7X7X7X7X7X7X7X7X7X7X7X7X7X7X7X7X7X7X7X7X7X7X",
"7X7X7X<X@X X}.|._.).7X7X7X7X7X7X7X7X7X7X7X7X7X7X7X7X7X7X7X7X7X7X7X7X7X7X7X7X7X7X7X7X7X7X7X7X7X7X7X7X",
"7X7X7X{..XoXXX.X.X7X7X7X7X7X7X7X7X7X7X7X7X7X7X7X7X7X7X7X7X7X7X7X7X7X7X7X7X7X7X7X7X7X7X7X7X7X7X7X7X7X",
"7X7X7X7X). X-X%X7X7X7X7X7X7X7X7X7X7X7X7X7X7X7X7X7X7X7X7X7X7X7X7X7X7X7X7X7X7X7X7X7X7X7X7X7X7X7X7X7X7X",
"7X7X7X7X7X(.'.*X7X7X7X7X7X7X7X7X7X7X7X7X7X7X7X7X7X7X7X7X7X7X7X7X7X7X7X7X7X7X7X7X7X7X7X7X7X7X7X7X7X7X",
"7X7X7X7X&X&X` _ -.C.@.7X7X7X7X7X7X7X7X7X7X7X7X7X7X7X7X7X7X7X7X7X7X7X7X7X7X7X7X7X7X7X7X7X7X7X7X7X7X7X",
"7X7XS.:X-.x.j.m.h.w.C 7X7X7X7X7X7X7X7X7X7X7X7X7X7X7X7X7X7X7X7X7X7X7X7X7X7X7X7X7X7X7X7X7X7X7X7X7X7X7X",
"7X7X] X.e.e.i.i.,.m 7X7X7X7X7X7X7X7X7X7X7X7X7X7X7X7X7X7X7X7X7X7X7X7X7X7X7X7X7X7X7X7X7X7X7X7X7X7X7X7X",
"7X7Xt.0.,.,.9.u.>.7X7X7X7X7X7X7X7X7X7X7X7X7X7X7X7X7X7X7X7X7X7X7X7X7X7X6X7X7X7X7X7X7X7X7X7X7X7X7X7X7X",
"7X7X7X7Xn >.n n 7X7X7X7X7X7X3XQ.J.G.N.7X7X7X;X:X:X,X>X5XQ.7X7X7X7X5X4XQ.!.2X4X3X7X7X7X7X7X7X7X7X7X7X",
"7X7X7X7X7Xr.9.7X7X7X7X7XT.2XW.m.l , ) #.E V.=.g g +.:XD.P.B.K.2XT.T.P.L.T.U.T.W.Q.7X7X>X7X7X7X7X7X7X",
"7X7X7X7X7X<.t.7X7X| k.!.R.T.G.e.o 0 } @ l q.<.q.m , d f ..L.R.1X!.U.H.A.U.E.J.K.K.E.G.;.;.7X7X7X7X7X",
"7X7X7X7X7Xq.0.7X-.v.H.G.T.E.B.w o C =.@.v.k.k.k.@.k.@.k.P.L.N.G.K.K.K.L.L.I.P.Z.z.C.x.*.&.&.7X7X7X7X",
"7X7X7X7X7Xh.F  . .C N q.m.K.N.C w w h | &.Q E ! E k.Z.G.N.g.<.N v B Z Z ) ..{ O.*.+.;.;.O.v.*.7X7X7X",
"7X7X7X7X7Xg.] ' n.N.h.f.g.e.w w l N Z &.+.o.| W Z q.h.q.0.e.h.m.N.N.m.n.b w w w 0 0 h ..O.O.7X7X7X7X",
"7X7X7X7X7X .D ] m.m.G.m.w.v w c d.e.#.&.#.v.f.e.g.h.q.g.N.N.G.N.m.m.m.m.m.m.h.n.e.N : 1 $.} 7X7X7X7X",
"7X7X7X7X7X+. .' h.n.n.m.g.C e , <.v j g v v B 1.q.0.m.m.B.m.n.g.g.q.d.h.n.i.w.e.D C e d [ } 7X7X7X7X",
"7X7X7X7X7X} Z 1.<.N ,.q.D b : X w k w w : e k k k & e.l.t.t.i.g.g.g.t.e.c , 1 B D d.0.v h Z 7X7X7X7X",
"7X7X7X7XB e v <.v w & o . #     % % % 9 r 9 w w % % % , , , , , : n w.v v 1.v c C t + = z 7X7X7X7X7X",
"7X7X7X7X7X<.D N A v 9 9 X   . : D d.t.c.x.{ o.W F h.g.f.1.A v e & & & , m f.q.c u G K K 7X7X7X7X7X7X",
"7X7X7X7X7Xf.' b m.D e w v v q.d.Z.P.h.0.t.d...f.s.F.F.M.M.a.a.r.r.r.i.c % e.f.N * K L P 7X7X7X7X7X7X",
"7X7X7Xe.q.z.g.b t.v , k N 0.b A ] ] v 1 m 0.<.i.<.4 n M M M M M ,.A A p 7Xq.q.B t K J K 7X7X7X7X7X7X",
"7X7X7X7Xe.e.t.,.m N c w <.d.F N <.' c v m N m ,.: . . . . o . & o O J R 7Xq.1.N = J Y U 7X7X7X7X7X7X",
"7X7X7X7X7Xm v N 7XF D w 0.n.n.a.g.g.e.a.n.m.b.r.0 : : : 9 0 w w 9 O K / 7Xq.q.D y J L L 7X7X7X7X7X7X",
"7X7X7X7X7XC D c 7X1.r.N B x <.x x g.i.D S e.r.1.w 0 0 : : : w , q = U 7X7X<.0.C i L L L 7X7X7X7X7X7X",
"7X7X7X7X7Xe d w 7X- x ,.,.P P R S b.h.x I T T * >.>.c k , w w 4 e = Y 7X7Xq.D B - L L 7X7X7X7X7X7X7X",
"7X7X7X7X7Xw w w 7X= i u m ^ Y Y x D N z P I P z >.7.7.,.m 4 k 0 e = T 7Xr.0.6.A - i L 7X7X7X7X7X7X7X",
"7X7X7X7X7X7Xv c 7X* a t i R U Y K e r K J - L V 2.n >.7.M N c n e = T 7X7Xm M z = a i 7X7X7X7X7X7X7X",
"7X7X7X7X7X7XC b 7Xt a t 7XY U Y P U J P J = L x M >.n n 5.M M 6.l i ~ 7X7X7X7Xy * a i 7X7X7X7X7X7X7X",
"7X7X7X7X7X7XC N 7Xu p u 7XY Y P U K Y Y = O K x M 6.M n 6 2.n 5.c U ~ 7X7X7X7X+ t a y 7X7X7X7X7X7X7X",
"7X7X7X7X7X7Xb N 7Xq e e 7XL U U U G U Y = O K x 7 M >.M 8 ' 5.7 e a 7X7X7X7X7X* u a t 7X7X7X7X7X7X7X",
"7X7X7X7X7X7XN D 7Xp d d 7XJ U U U = J U = O Y V 7 M n M n c n c e V 7X7X7X7X7X* p p 7X7X7X7X7X7X7X7X",
"7X7X7X7X7X7X' 0.7X7Xv 7X7Xi U U U = = U = = P A 3.M n 5 5 7 y.y.v C 7X7X7X7X7Xt l p 7X7X7X7X7X7X7X7X",
"7X7X7X7X7X7XN N 7X7X7X7X7Xy U U U = y U y = Y A 2.n 2.8.8.4.4.5.n 6 6.7X7X7X7Xr l p 7X7X7X7X7X7X7X7X",
"7X7X7X7X7Xn N m N q.' 0.0.y i U U y y i y = Y C 2.5.p.4.3.7 5 d ' 2.' v v b B v e v 7X7X7X7X7X7X7X7X",
"7X7X7X7Xm M 5.M n b m 4 1 u U U U t y a y y Y 6.y.3.8 7 5 n 7 ' [ c < , 2 1 s b b ' 7X7X7X7X7X7X7X7X",
"7X7X7X7Xm >.M n 6 1 < < 1 r y y U u t a t y T 7.8 < 5 5 ' 2.3 1 6 1 < < # > < ; 1 b N 0.w.7X7X7X7X7X",
"7X7X7Xq.t.N 6 6 n < < m ' F ) V ~ h p u t y ~ n 3 7 2.8.2.3 < 2.2.< < 1 ; < 5 5 c N D ' 0.0.' 7X7X7X",
"7X7X7Xs q.w.w.' N b b D F D F F F 0.v p t y V 2.7 8.4.8 > 3 2.8.2.6 6 1 > 3 s ' r.0.q.0.D D v w 7X7X",
"7X7X: 0 w s v ' ] ] ] ] d.q.] F D s s ' d p A 8.8 y.3 > 6 2.5.2.5.M M N b b v b b N c v c e 2 : 7X7X",
"7X7Xo : 2 2 2 w d s s v C C C D c s ' w.w.N b b ' ' ' ' 0.0.q.' ' ' D D ' C v s 2 e : 2 0 w 2 : 7X7X",
"7X7X7X7X: s D D b v s s w e d s 2 w w 0 w w w v b c s s v b v v e w w w w w 2 e 0 2 : : : : : ; 7X7X",
"7X7X7X7X7XC d s v D C D D D v : : 1 2 1 w 2 : 0 : : : 2 : 0 : : 2 0 2 2 2 2 @ # # # # # # 7X7X7X7X7X",
"7X7X7X7X7X7X7X7Xo : : : : D e X ; ; : : 2 o ; : : : : : : o : o # # # @ # 7X7X7X7X7X7X7X7X7X7X7X7X7X",
"7X7X7X7X7X7X7X7X7X7X7X7X7X7X7X7X7X7X7X7X7X7X7X7X7X7X7X7X7X7X7X7X7X7X7X7X7X7X7X7X7X7X7X7X7X7X7X7X7X7X"
};
